<svg width="24" height="24" viewBox="0 0 24 24" fill="none" xmlns="http://www.w3.org/2000/svg">
<g clip-path="url(#clip0_32_3913)">
<mask id="mask0_32_3913" style="mask-type:alpha" maskUnits="userSpaceOnUse" x="0" y="0" width="24" height="24">
<path d="M24 0H0V24H24V0Z" fill="#D9D9D9"/>
</mask>
<g mask="url(#mask0_32_3913)">
<path d="M18.9607 14.4829C18.8728 14.545 17.0517 16.5029 17.0517 17.8769C17.0517 19.3257 17.9576 20.2508 18.9607 20.3012C19.8254 20.3439 20.8695 19.4372 20.8695 17.8769C20.8695 16.4224 19.0484 14.545 18.9607 14.4829ZM9.02114 20.3012C9.38192 20.6678 9.86105 20.8695 10.3707 20.8695C10.8804 20.8695 11.3596 20.6678 11.7203 20.3012L18.4014 13.5132L17.7265 12.8276L10.3707 5.35394L8.18219 3.13037L6.83262 4.50155L9.02114 6.72513L3.68967 12.142C3.32889 12.5085 3.13037 12.9953 3.13037 13.5132C3.13037 14.0311 3.32889 14.5178 3.68967 14.8844L9.02114 20.3012ZM10.3707 8.09632L15.7022 13.5132H5.03924L10.3707 8.09632Z" fill="#61A7D4"/>
</g>
</g>
<defs>
<clipPath id="clip0_32_3913">
<rect width="24" height="24" fill="white"/>
</clipPath>
</defs>
</svg>
