<svg width="12" height="8" viewBox="0 0 12 8" fill="none" xmlns="http://www.w3.org/2000/svg">
<path d="M6.83509 4.55329V4.53117L6.70231 2.76096C6.69866 2.71302 6.67836 2.67153 6.64148 2.6365C6.60459 2.60146 6.56217 2.58394 6.51422 2.58394H5.48535C5.43741 2.58394 5.39499 2.60146 5.3581 2.6365C5.32122 2.67153 5.30092 2.71302 5.29727 2.76096L5.16448 4.53117V4.55329C5.1608 4.59753 5.17555 4.63442 5.20874 4.6639C5.24191 4.69343 5.28068 4.70819 5.32492 4.70819H6.67466C6.7189 4.70819 6.75767 4.69343 6.79085 4.6639C6.82403 4.63442 6.8388 4.59753 6.83509 4.55329ZM11.0337 7.13663C11.0337 7.40584 10.949 7.54045 10.7793 7.54045H6.88487C6.93282 7.54045 6.97341 7.52292 7.00659 7.48791C7.03977 7.45285 7.05454 7.41137 7.05083 7.36343L6.94022 5.94732C6.93652 5.89937 6.91622 5.85784 6.87934 5.82284C6.84245 5.78777 6.80008 5.7703 6.75214 5.7703H5.24744C5.19952 5.7703 5.15711 5.78777 5.12023 5.82284C5.08335 5.85784 5.06306 5.89937 5.05938 5.94732L4.94874 7.36343C4.94505 7.41137 4.95981 7.45285 4.99299 7.48791C5.02619 7.52292 5.06675 7.54045 5.11469 7.54045H1.22029C1.05064 7.54045 0.96582 7.40584 0.96582 7.13663C0.96582 6.93748 1.01376 6.72362 1.10965 6.49494L3.41642 0.719715C3.44593 0.649645 3.49387 0.588795 3.56025 0.537164C3.62663 0.485532 3.6967 0.459717 3.77046 0.459717H5.64574C5.59779 0.459717 5.55542 0.477237 5.51854 0.512272C5.48165 0.547306 5.46135 0.588795 5.45765 0.636738L5.37469 1.69885C5.37099 1.75048 5.38575 1.79289 5.41894 1.82608C5.45212 1.85927 5.49271 1.87587 5.54066 1.87587H6.45892C6.50687 1.87587 6.54746 1.85927 6.58064 1.82608C6.61382 1.79289 6.62859 1.75048 6.62488 1.69885L6.54193 0.636738C6.53822 0.588795 6.51793 0.547306 6.48104 0.512272C6.44415 0.477237 6.40179 0.459717 6.35384 0.459717H8.22913C8.30285 0.459717 8.37292 0.485532 8.43934 0.537164C8.5057 0.588795 8.55365 0.649645 8.58318 0.719715L10.8899 6.49494C10.9858 6.72362 11.0337 6.93748 11.0337 7.13663Z" fill="#61A7D4"/>
</svg>
