<svg id="Group_16409" data-name="Group 16409" xmlns="http://www.w3.org/2000/svg" width="259.203" height="161.827" viewBox="0 0 259.203 161.827">
  <circle id="Ellipse_63" data-name="Ellipse 63" cx="49.312" cy="49.312" r="49.312" transform="translate(18.43)" fill="#f2f2f2"/>
  <path id="Path_12034" data-name="Path 12034" d="M31.391,151.642c0,17.942,11.256,32.46,25.166,32.46" transform="translate(-31.391 -139.802)" fill="#2f2e41"/>
  <path id="Path_12035" data-name="Path 12035" d="M140.092,182.892c0-18.143,12.561-32.825,28.083-32.825" transform="translate(-114.926 -138.592)" fill="#127bbf"/>
  <path id="Path_12036" data-name="Path 12036" d="M70.775,158.668c0,17.043,7.178,30.833,16.048,30.833" transform="translate(-61.657 -145.201)" fill="#127bbf"/>
  <path id="Path_12037" data-name="Path 12037" d="M140.092,152.625c0-23.183,14.518-41.943,32.46-41.943" transform="translate(-114.926 -108.325)" fill="#2f2e41"/>
  <path id="Path_12038" data-name="Path 12038" d="M117.224,286.438s3.569-.11,4.644-.876,5.49-1.68,5.757-.452,5.363,6.109,1.334,6.142-9.362-.628-10.436-1.282S117.224,286.438,117.224,286.438Z" transform="translate(-97.352 -241.909)" fill="#a8a8a8"/>
  <path id="Path_12039" data-name="Path 12039" d="M129.031,297.21c-4.029.032-9.362-.628-10.436-1.282-.818-.5-1.143-2.285-1.252-3.109l-.119,0s.226,2.878,1.3,3.532,6.406,1.314,10.436,1.282c1.163-.009,1.565-.423,1.543-1.036C130.34,296.972,129.9,297.2,129.031,297.21Z" transform="translate(-97.352 -248.295)" opacity="0.2"/>
  <ellipse id="Ellipse_64" data-name="Ellipse 64" cx="43.293" cy="5.89" rx="43.293" ry="5.89" transform="translate(2.688 92.387)" fill="#3f3d56"/>
  <ellipse id="Ellipse_65" data-name="Ellipse 65" cx="36.347" cy="4.945" rx="36.347" ry="4.945" transform="translate(9.633 93.332)" opacity="0.1"/>
  <ellipse id="Ellipse_66" data-name="Ellipse 66" cx="65.518" cy="8.913" rx="65.518" ry="8.913" transform="translate(128.167 144.001)" fill="#3f3d56"/>
  <ellipse id="Ellipse_67" data-name="Ellipse 67" cx="39.357" cy="5.354" rx="39.357" ry="5.354" transform="translate(32.553 144.087)" fill="#3f3d56"/>
  <path id="Path_12040" data-name="Path 12040" d="M494,657.336c20.836,5.325,60.888-6.945,65.286-20.836" transform="translate(-386.9 -512.409)" fill="none" stroke="#2f2e41" stroke-miterlimit="10" stroke-width="2"/>
  <path id="Path_12041" data-name="Path 12041" d="M341,355.442s30.1-8.334,31.949,18.521-24.772,34.5-3.936,39.82" transform="translate(-269.322 -295.481)" fill="none" stroke="#2f2e41" stroke-miterlimit="10" stroke-width="2"/>
  <path id="Path_12042" data-name="Path 12042" d="M215.4,636.564s9.046-2.505,9.6,5.567-7.445,10.368-1.183,11.968" transform="translate(-172.801 -512.176)" fill="none" stroke="#2f2e41" stroke-miterlimit="10" stroke-width="2"/>
  <path id="Path_12043" data-name="Path 12043" d="M787.727,661.411,785.9,673.055s-8.978,4.77-2.665,4.91,36.054,0,36.054,0,5.752,0-3.367-5.05L814.1,660.71Z" transform="translate(-607.447 -531.015)" fill="#2f2e41"/>
  <path id="Path_12044" data-name="Path 12044" d="M781.974,677.839a24.833,24.833,0,0,1,3.935-2.6l1.824-11.644,26.374.025,1.824,11.479a23.956,23.956,0,0,1,4.214,2.773c1.171-.267,2.451-1.26-4.214-4.952l-1.824-12.205-26.374.7-1.824,11.644S778.365,677.064,781.974,677.839Z" transform="translate(-607.453 -531.015)" opacity="0.1"/>
  <rect id="Rectangle_14064" data-name="Rectangle 14064" width="118.824" height="82.77" rx="18.046" transform="translate(133.914 49.24)" fill="#2f2e41"/>
  <rect id="Rectangle_14065" data-name="Rectangle 14065" width="110.828" height="62.008" transform="translate(137.912 53.659)" fill="#3f3d56"/>
  <circle id="Ellipse_68" data-name="Ellipse 68" cx="0.701" cy="0.701" r="0.701" transform="translate(192.625 50.994)" fill="#f2f2f2"/>
  <path id="Path_12045" data-name="Path 12045" d="M728.648,621.322v7.256a4.177,4.177,0,0,1-4.178,4.178H614a4.177,4.177,0,0,1-4.178-4.178v-7.255Z" transform="translate(-475.91 -500.746)" fill="#2f2e41"/>
  <path id="Path_12046" data-name="Path 12046" d="M718.443,650.7v1.4H642.968v-1.122l.1-.281,1.86-5.05H716.9Z" transform="translate(-494.113 -496.175)" fill="#2f2e41"/>
  <path id="Path_12047" data-name="Path 12047" d="M1055.492,746c-.137.588-.656,1.208-1.829,1.794-4.209,2.1-12.766-.561-12.766-.561s-6.594-1.122-6.594-4.068a5.25,5.25,0,0,1,.578-.344c1.769-.936,7.636-3.246,18.039.1a4.34,4.34,0,0,1,1.977,1.3A2.068,2.068,0,0,1,1055.492,746Z" transform="translate(-802.117 -592.846)" fill="#2f2e41"/>
  <path id="Path_12048" data-name="Path 12048" d="M1057.411,746c-5.151,1.974-9.743,2.121-14.455-1.152a10.348,10.348,0,0,0-6.156-2.027c1.769-.936,7.636-3.246,18.039.1a4.338,4.338,0,0,1,1.977,1.3A2.069,2.069,0,0,1,1057.411,746Z" transform="translate(-804.035 -592.846)" opacity="0.1"/>
  <ellipse id="Ellipse_69" data-name="Ellipse 69" cx="1.824" cy="0.561" rx="1.824" ry="0.561" transform="translate(245.093 150.879)" fill="#f2f2f2"/>
  <circle id="Ellipse_70" data-name="Ellipse 70" cx="2.665" cy="2.665" r="2.665" transform="translate(190.661 123.663)" fill="#f2f2f2"/>
  <path id="Path_12049" data-name="Path 12049" d="M718.443,667.466v1.4H642.968v-1.122l.1-.281Z" transform="translate(-494.113 -512.94)" opacity="0.1"/>
  <rect id="Rectangle_14066" data-name="Rectangle 14066" width="48.155" height="56.026" transform="translate(25.144 36.81)" fill="#2f2e41"/>
  <rect id="Rectangle_14067" data-name="Rectangle 14067" width="57.878" height="19.91" transform="translate(20.283 31.254)" fill="#3f3d56"/>
  <rect id="Rectangle_14068" data-name="Rectangle 14068" width="57.878" height="19.91" transform="translate(20.283 54.868)" fill="#3f3d56"/>
  <rect id="Rectangle_14069" data-name="Rectangle 14069" width="57.878" height="19.91" transform="translate(20.283 78.483)" fill="#3f3d56"/>
  <rect id="Rectangle_14070" data-name="Rectangle 14070" width="3.704" height="3.704" transform="translate(62.881 34.727)" fill="#127bbf" opacity="0.4"/>
  <rect id="Rectangle_14071" data-name="Rectangle 14071" width="3.704" height="3.704" transform="translate(68.206 34.727)" fill="#127bbf" opacity="0.8"/>
  <rect id="Rectangle_14072" data-name="Rectangle 14072" width="3.704" height="3.704" transform="translate(73.53 34.727)" fill="#127bbf"/>
  <rect id="Rectangle_14073" data-name="Rectangle 14073" width="3.704" height="3.704" transform="translate(62.881 58.11)" fill="#127bbf" opacity="0.4"/>
  <rect id="Rectangle_14074" data-name="Rectangle 14074" width="3.704" height="3.704" transform="translate(68.206 58.11)" fill="#127bbf" opacity="0.8"/>
  <rect id="Rectangle_14075" data-name="Rectangle 14075" width="3.704" height="3.704" transform="translate(73.53 58.11)" fill="#127bbf"/>
  <rect id="Rectangle_14076" data-name="Rectangle 14076" width="3.704" height="3.704" transform="translate(62.881 81.492)" fill="#127bbf" opacity="0.4"/>
  <rect id="Rectangle_14077" data-name="Rectangle 14077" width="3.704" height="3.704" transform="translate(68.206 81.492)" fill="#127bbf" opacity="0.8"/>
  <rect id="Rectangle_14078" data-name="Rectangle 14078" width="3.704" height="3.704" transform="translate(73.53 81.492)" fill="#127bbf"/>
  <circle id="Ellipse_71" data-name="Ellipse 71" cx="18.289" cy="18.289" r="18.289" transform="translate(55.009 106.264)" fill="#2f2e41"/>
  <rect id="Rectangle_14079" data-name="Rectangle 14079" width="5.556" height="9.955" transform="translate(64.964 138.907)" fill="#2f2e41"/>
  <rect id="Rectangle_14080" data-name="Rectangle 14080" width="5.556" height="9.955" transform="translate(76.077 138.907)" fill="#2f2e41"/>
  <ellipse id="Ellipse_72" data-name="Ellipse 72" cx="4.63" cy="1.736" rx="4.63" ry="1.736" transform="translate(64.964 147.242)" fill="#2f2e41"/>
  <ellipse id="Ellipse_73" data-name="Ellipse 73" cx="4.63" cy="1.736" rx="4.63" ry="1.736" transform="translate(76.077 147.01)" fill="#2f2e41"/>
  <circle id="Ellipse_74" data-name="Ellipse 74" cx="6.251" cy="6.251" r="6.251" transform="translate(67.511 113.672)" fill="#fff"/>
  <circle id="Ellipse_75" data-name="Ellipse 75" cx="2.084" cy="2.084" r="2.084" transform="translate(71.678 117.84)" fill="#3f3d56"/>
  <path id="Path_12050" data-name="Path 12050" d="M270.47,514.285c-1.477-6.614,3.244-13.3,10.544-14.927s14.415,2.41,15.892,9.024-3.361,9.053-10.661,10.683S271.947,520.9,270.47,514.285Z" transform="translate(-214.912 -406.74)" fill="#127bbf"/>
  <ellipse id="Ellipse_76" data-name="Ellipse 76" cx="9.145" cy="2.871" rx="9.145" ry="2.871" transform="translate(79.786 119.225) rotate(-23.171)" fill="#2f2e41"/>
  <ellipse id="Ellipse_77" data-name="Ellipse 77" cx="9.145" cy="2.871" rx="9.145" ry="2.871" transform="translate(45.522 131.495) rotate(-23.171)" fill="#2f2e41"/>
  <path id="Path_12051" data-name="Path 12051" d="M328.679,657.3c0,1.79-4.609,5.325-9.724,5.325s-9.955-3.3-9.955-5.093,4.841-1.389,9.955-1.389S328.679,655.508,328.679,657.3Z" transform="translate(-244.73 -527.419)" fill="#fff"/>
</svg>
