<svg width="11" height="8" viewBox="0 0 11 8" fill="none" xmlns="http://www.w3.org/2000/svg">
<path fill-rule="evenodd" clip-rule="evenodd" d="M4.33325 0H6.33325C8.21887 0 9.16168 0 9.74747 0.585786C10.3333 1.17157 10.3333 2.11438 10.3333 4C10.3333 5.88562 10.3333 6.82843 9.74747 7.41421C9.16168 8 8.21887 8 6.33325 8H4.33325C2.44763 8 1.50482 8 0.919038 7.41421C0.333252 6.82843 0.333252 5.88562 0.333252 4C0.333252 2.11438 0.333252 1.17157 0.919038 0.585786C1.50482 0 2.44763 0 4.33325 0ZM5.95825 2.5C5.95825 2.29289 6.12615 2.125 6.33325 2.125H8.83325C9.04036 2.125 9.20825 2.29289 9.20825 2.5C9.20825 2.70711 9.04036 2.875 8.83325 2.875H6.33325C6.12615 2.875 5.95825 2.70711 5.95825 2.5ZM6.45825 4C6.45825 3.79289 6.62615 3.625 6.83325 3.625H8.83325C9.04036 3.625 9.20825 3.79289 9.20825 4C9.20825 4.20711 9.04036 4.375 8.83325 4.375H6.83325C6.62615 4.375 6.45825 4.20711 6.45825 4ZM6.95825 5.5C6.95825 5.29289 7.12615 5.125 7.33325 5.125H8.83325C9.04036 5.125 9.20825 5.29289 9.20825 5.5C9.20825 5.70711 9.04036 5.875 8.83325 5.875H7.33325C7.12615 5.875 6.95825 5.70711 6.95825 5.5ZM4.83325 2.5C4.83325 3.05228 4.38554 3.5 3.83325 3.5C3.28097 3.5 2.83325 3.05228 2.83325 2.5C2.83325 1.94772 3.28097 1.5 3.83325 1.5C4.38554 1.5 4.83325 1.94772 4.83325 2.5ZM3.83325 6.5C5.83325 6.5 5.83325 6.05228 5.83325 5.5C5.83325 4.94772 4.93782 4.5 3.83325 4.5C2.72868 4.5 1.83325 4.94772 1.83325 5.5C1.83325 6.05228 1.83325 6.5 3.83325 6.5Z" fill="#61A7D4"/>
</svg>
