<svg width="13" height="12" viewBox="0 0 13 12" fill="none" xmlns="http://www.w3.org/2000/svg">
<g clip-path="url(#clip0_5_1288)">
<path d="M7.86679 3.35994V2.39994H9.06679V1.43994H5.70679V2.39994H6.90679V3.35994" fill="#61A7D4"/>
<path d="M2.82674 6.48004H1.86674V5.04004H0.906738V8.88004H1.86674V7.44004H2.82674" fill="#61A7D4"/>
<path d="M11.4667 4.8001V6.0001H10.7467V4.04242C10.7467 3.79834 10.552 3.6001 10.3125 3.6001H5.46426C5.3493 3.6001 5.23842 3.6469 5.15706 3.73018L4.02666 5.0401H3.30666C3.06666 5.0401 2.82666 5.2801 2.82666 5.5201V8.4001C2.82666 8.64442 3.06714 8.8801 3.30666 8.8801H4.02666L5.15754 10.1907C5.2389 10.2735 5.3493 10.3201 5.46426 10.3201H8.54946C8.66442 10.3201 8.77482 10.2735 8.85618 10.1907L10.6192 8.39506C10.7011 8.31202 10.7464 8.1997 10.7464 8.08234V7.4401H11.4664V8.6401H12.4264V4.8001H11.4667Z" fill="#61A7D4"/>
<path d="M8.34678 6.72005L6.42678 9.36005L7.14678 7.20005H5.94678L7.14678 4.80005H8.34678L7.14678 6.72005H8.34678Z" fill="white"/>
</g>
<defs>
<clipPath id="clip0_5_1288">
<rect width="12" height="12" fill="white" transform="translate(0.666748)"/>
</clipPath>
</defs>
</svg>
