<svg width="25" height="24" viewBox="0 0 25 24" fill="none" xmlns="http://www.w3.org/2000/svg">
<path d="M15.6814 3.96C16.1614 4.67 16.4414 5.52 16.4414 6.44C16.4314 8.84 14.5414 10.79 12.1614 10.87C12.0614 10.86 11.9414 10.86 11.8314 10.87C9.62142 10.8 7.83142 9.11 7.59142 6.95C7.30142 4.38 9.41142 2 11.9914 2" stroke="#637381" stroke-width="1.5" stroke-linecap="round" stroke-linejoin="round"/>
<path d="M6.99151 14.56C4.57151 16.18 4.57151 18.82 6.99151 20.43C9.74151 22.27 14.2515 22.27 17.0015 20.43C19.4215 18.81 19.4215 16.17 17.0015 14.56C14.2715 12.73 9.76151 12.73 6.99151 14.56Z" stroke="#637381" stroke-width="1.5" stroke-linecap="round" stroke-linejoin="round"/>
</svg>
